<svg data-name="Layer 2" xmlns="http://www.w3.org/2000/svg" viewBox="0 0 100 79.96"><path d="M93.65 79.25v-15H70.31l-.21.23a9.2 9.2 0 0 1-6.8 3.4 8.21 8.21 0 0 1-5-1.73 9.28 9.28 0 0 1-3.14-4.27c-1.22-3.47-.06-6.95 3.18-9.55l.32-.25-1.51-10.67-31.61 8.46L3.27 18.95 72.65.87l8.72 34-17.68 4.73L65.16 51l.53.08c3.21.5 5.24 3.72 5.67 5.12l.15.5H93.7v-9.42h5.59v32h-5.64z"/><path d="M72.14 1.74l8.37 32.66-16.4 4.35-1.2.32.16 1.24 1.33 10.26.14 1.06 1.06.16a6.13 6.13 0 0 1 3.42 2 7.78 7.78 0 0 1 1.68 2.68l.31 1h23.4V48h4.17v30.54h-4.22v-15H70l-.43.46a8.52 8.52 0 0 1-6.27 3.17 7.5 7.5 0 0 1-4.53-1.58 8.56 8.56 0 0 1-2.9-3.94 7.17 7.17 0 0 1-.16-4.37 8.76 8.76 0 0 1 3.11-4.38l.63-.51-.12-.8L58 42.1l-.23-1.58-1.54.41-30.4 8.13L4.45 19.37 72.14 1.74m1-1.74L2.08 18.52l23.17 32.17 31.31-8.39 1.37 9.47c-8.16 6.54-2.18 16.81 5.37 16.81a9.84 9.84 0 0 0 7.33-3.64h22.31V80H100V46.57h-7V56H72c-.52-1.66-2.75-5.07-6.24-5.61l-1.29-10.27 17.76-4.71L73.16 0z" fill="#fff"/><path d="M.89 33.75l7.84-2.09 4.23 16.14L5.62 50 .89 33.75z"/><path d="M8.22 32.53l3.88 14.79-6 1.79-4.33-14.86 6.45-1.72m1-1.74L0 33.25l5.14 17.63 8.69-2.59-4.59-17.5z" fill="#fff"/></svg>